<svg width="37" height="38" xmlns="http://www.w3.org/2000/svg" xmlns:xlink="http://www.w3.org/1999/xlink" xml:space="preserve" overflow="hidden"><g transform="translate(-33 -114)"><path d="M8.177 10.3045 15.1515 5.032C16.1135 4.3105 17.427 4.551 18.1115 5.5685 18.3705 5.957 18.5 6.401 18.5 6.882L18.5 30.0995C18.5 31.339 17.5565 32.3565 16.3725 32.3565 15.1885 32.3565 15.503 32.2085 15.1515 31.9495L8.177 26.677C8.0105 26.5475 7.7885 26.4735 7.5665 26.4735L2.6085 26.4735C2.0165 26.4735 1.554 25.974 1.554 25.345L1.554 11.6365C1.554 11.0075 2.035 10.508 2.6085 10.508L7.5665 10.508C7.7885 10.508 7.992 10.434 8.177 10.3045L8.177 10.3045ZM27.232 6.9745C26.64 6.401 26.677 5.55 27.306 4.995 27.3245 4.995 27.343 4.958 27.3615 4.9395 28.009 4.4585 28.971 4.4955 29.5445 5.0505 29.8775 5.365 30.155 5.6425 30.34 5.8645 37.2775 13.394 37.148 24.1055 29.9515 31.524 29.8035 31.672 29.637 31.8385 29.489 31.9865 28.8415 32.5045 27.935 32.5045 27.2875 31.9865 26.6585 31.45 26.6215 30.599 27.2135 30.0255 27.343 29.896 27.454 29.8035 27.5465 29.6925 33.67 23.31 33.781 14.134 27.8795 7.6405 27.713 7.4555 27.491 7.2335 27.2135 6.9745Z" fill="#00B0F0" transform="matrix(1 0 0 1.02703 33 114)"/><path d="M22.4035 10.249C22.4405 10.212 22.4775 10.1935 22.5145 10.175 23.162 9.7125 24.124 9.7865 24.6605 10.3415 24.753 10.434 24.8455 10.5265 24.9195 10.619 29.082 15.281 29.0635 21.7745 24.8825 26.4365 24.8085 26.5105 24.753 26.5845 24.679 26.6585 24.642 26.6955 24.6235 26.714 24.5865 26.751 23.9945 27.269 23.0325 27.269 22.422 26.751 21.793 26.2145 21.7375 25.382 22.2925 24.79 22.348 24.716 22.422 24.6605 22.4775 24.5865 25.5855 20.979 25.5855 16.0395 22.4775 12.432 22.422 12.358 22.3665 12.3025 22.2925 12.2285 21.7375 11.6365 21.793 10.804 22.422 10.2675L22.422 10.2675Z" fill="#00B0F0" transform="matrix(1 0 0 1.02703 33 114)"/></g></svg>